<svg width="1024" height="1024" viewBox="0 0 32 32" xmlns="http://www.w3.org/2000/svg">
  <defs>
    <linearGradient id="bgAmber" x1="0" y1="0" x2="0" y2="1">
      <stop offset="0" stop-color="#e0b76d"/>
      <stop offset="1" stop-color="#a97a3b"/>
    </linearGradient>
    <linearGradient id="bgHighlight" x1="0" y1="0" x2="0" y2="1">
      <stop offset="0" stop-color="rgba(255,240,200,0.55)"/>
      <stop offset="0.5" stop-color="rgba(255,240,200,0)"/>
    </linearGradient>
  </defs>
  <path d="M6 3 H26 A2 2 0 0 1 28 5 V21 C28 24.5, 25 26.5, 22 27.6 L16 29.8 L10 27.6 C7 26.5, 4 24.5, 4 21 V5 A2 2 0 0 1 6 3 Z"
    fill="url(#bgAmber)" stroke="#5a3f1e" stroke-width="0.6"/>
  <path d="M7 4.6 H25 A0.8 0.8 0 0 1 25.8 5.4 V20.5 C25.8 23.3, 23.2 25, 21.3 25.7 L16 27.7 L10.7 25.7 C8.8 25, 6.2 23.3, 6.2 20.5 V5.4 A0.8 0.8 0 0 1 7 4.6 Z"
    fill="url(#bgHighlight)" stroke="rgba(255,235,200,0.4)" stroke-width="0.4"/>
  <text x="16" y="21.5" text-anchor="middle"
    font-family="Cormorant Garamond, Didot, Times New Roman, serif"
    font-weight="700" font-size="17"
    fill="#2a1a0a">B</text>
</svg>
